<svg xmlns="http://www.w3.org/2000/svg" viewBox="0 0 1254 187"><path fill="#00afff" d="M240 147.4c29.6 0 50.4-25.6 50.4-68.6 0-42.4-20.8-67.4-50.4-67.4s-50.4 25-50.4 67.4c0 43 20.8 68.6 50.4 68.6zm0-14.6c-20 0-33.2-20.4-33.2-54 0-33 13.2-52.8 33.2-52.8s33.2 19.8 33.2 52.8c0 33.6-13.2 54-33.2 54zm68.52 12.2h16.4V77.2c11.4-11.8 19.2-17.6 30.8-17.6 16 0 22.4 8.8 22.4 27.2V145h16.4V84.6c0-25.6-10.6-39.2-33.6-39.2-15.2 0-26.4 8.2-36.4 19h-.6l1-23V2.6h-16.4zm162.85 0h16.4V74.6c4.8-10 9.2-15 16-15 7.2 0 10 5.8 10 17V145h15.2V74.6c5.2-10 8.8-15 15.6-15 7.2 0 10.4 5.8 10.4 17V145h16.4V75.4c0-19.4-8-30-21.6-30-11.2 0-17.2 6.4-22.8 16.8-2.8-11.2-8.8-16.8-18.4-16.8-11.2 0-17.2 6.2-22.2 15.2h-.4l-1.4-12.8h-13.2zm124.52 41.8c22 0 34-14.6 41.2-33.8l42.8-105.2h-15.6l-21.2 53.8c-3.2 8.8-7 19-10.4 28.2h-.8c-4-9.4-8.2-19.6-12-28.2l-23.8-53.8h-16.6l45.4 97.4-3 7.2c-4.8 12-13 20.8-26.6 20.8-3 0-6.2-.6-8.8-1.4l-3.4 13c3.4 1.2 8.2 2 12.8 2zm222.44-39.4c12.2 0 21.6-2.6 30.4-5.8l-3.6-12c-7 2.6-14.2 4.4-23.4 4.4-18.8 0-24.6-9.2-24.6-26.6V61.2h47.8V47.8h-47.8V16.6h-13.6l-2.2 31.2-28 1v12.4h27.4v46c0 24 9.2 40.2 37.6 40.2zm42.72-2.4h16.4V74.6c4.8-10 9.2-15 16-15 7.2 0 10 5.8 10 17V145h15.2V74.6c5.2-10 8.8-15 15.6-15 7.2 0 10.4 5.8 10.4 17V145h16.4V75.4c0-19.4-8-30-21.6-30-11.2 0-17.2 6.4-22.8 16.8-2.8-11.2-8.8-16.8-18.4-16.8-11.2 0-17.2 6.2-22.2 15.2h-.4l-1.4-12.8h-13.2zm147.55 2.4c15 0 26.4-8 36.2-19.4h.8l1.4 17h13.4V47.8H1044v67.4c-10.8 12.6-19 18-30.2 18-16.2 0-22.4-8.8-22.4-27.2V47.8h-16.6v60.4c0 25.6 10.6 39.2 33.8 39.2zm73.5-2.4h17.6l16-22.4c4-6.2 8-11.8 12-17.6h.8c4.2 5.6 8.8 12 12.8 17.6l17 22.4h18l-37.2-49 34.6-48.2h-17.4l-14.6 21c-3.4 5.4-7.4 11.4-11 16.8h-.8c-4-5.4-8-11.2-11.4-16.4l-15.4-21.4h-18.2l34.2 46.8zm151.5-46.4h11.2l2-68.8.4-18.8h-16l.4 18.8zm5.6 48.8c8 0 14.6-6 14.6-15.6 0-9.4-6.6-15.2-14.6-15.2s-14.6 5.8-14.6 15.2c0 9.6 6.6 15.6 14.6 15.6z" aria-label="Oh my tmux!"/><path fill="#fff" d="M76.892 144.526h7.91V76.812h76.014l.03-7.85-76.044-.06V-.131h-7.91z"/><path fill="#3c3c3c" fill-rule="evenodd" d="M83.788 69.866v-70h-6v146h6v-70h77v-6zm-83-54.994C.788 6.584 7.51-.134 15.786-.134h130c8.283 0 14.998 6.725 14.998 15.006v130.99h-160z"/><path fill="#ff0" d="m2 146 23-1v13.719s-14.06 1.335-18.379-2.658C1.471 151.301 2 146.001 2 146.001z" style="mix-blend-mode:normal" transform="translate(.788 -.134)"/><path fill="#ff00af" d="M25 145h30v13.719H25z" style="mix-blend-mode:normal" transform="translate(.788 -.134)"/><path fill="#3c3c3c" d="M55 145h5v13.719h-5z" style="mix-blend-mode:normal" transform="translate(.788 -.134)"/><path fill="#00afff" d="M60 145h17v13.719H60z" style="mix-blend-mode:normal" transform="translate(.788 -.134)"/><path fill="#3c3c3c" d="M77 145h54.248v13.719H77z" style="mix-blend-mode:normal" transform="translate(.788 -.134)"/><path fill="#fff" d="m157.95 146-13.053-1-9.947 13.719s14.06 1.335 18.379-2.658c5.15-4.76 4.62-10.06 4.62-10.06z" style="mix-blend-mode:normal" transform="translate(.788 -.134)"/><path fill="#d70000" d="M131.25 145h13.752v13.719H131.25z" style="mix-blend-mode:normal" transform="translate(.788 -.134)"/><path fill="#3c3c3c" fill-rule="evenodd" d="M2.788 144.866c0 7.189 5.816 13.004 12.998 13.004h130c7.174 0 12.998-5.824 12.998-13.004m2 0c0 8.287-6.722 15.004-14.998 15.004h-130c-8.283 0-14.998-6.706-14.998-15.004m2 1.004-2-2h160l-2 2m2 0h-160"/></svg>
