<svg xmlns="http://www.w3.org/2000/svg" viewBox="0 0 160 160"><path fill="#fff" d="M76.104 144.66h7.91V76.946h76.014l.03-7.85-76.044-.06V.003h-7.91z"/><path fill="#3c3c3c" fill-rule="evenodd" d="M83 70V0h-6v146h6V76h77v-6zM0 15.006C0 6.718 6.722 0 14.998 0h130c8.283 0 14.998 6.725 14.998 15.006v130.99h-160z"/><path fill="#ff0" d="m2 146 23-1v13.719s-14.06 1.335-18.379-2.658C1.471 151.301 2 146.001 2 146.001z" style="mix-blend-mode:normal"/><path fill="#ff00af" d="M25 145h30v13.719H25z" style="mix-blend-mode:normal"/><path fill="#3c3c3c" d="M55 145h5v13.719h-5z" style="mix-blend-mode:normal"/><path fill="#00afff" d="M60 145h17v13.719H60z" style="mix-blend-mode:normal"/><path fill="#3c3c3c" d="M77 145h54.248v13.719H77z" style="mix-blend-mode:normal"/><path fill="#fff" d="m157.95 146-13.053-1-9.947 13.719s14.06 1.335 18.379-2.658c5.15-4.76 4.62-10.06 4.62-10.06z" style="mix-blend-mode:normal"/><path fill="#d70000" d="M131.25 145h13.752v13.719H131.25z" style="mix-blend-mode:normal"/><path fill="#3c3c3c" fill-rule="evenodd" d="M2 145c0 7.189 5.816 13.004 12.998 13.004h130c7.174 0 12.998-5.824 12.998-13.004m2 0c0 8.287-6.722 15.004-14.998 15.004h-130C6.715 160.004 0 153.298 0 145m2 1.004-2-2h160l-2 2m2 0H0"/></svg>